<svg xmlns="http://www.w3.org/2000/svg" xmlns:xlink="http://www.w3.org/1999/xlink" width="128" zoomAndPan="magnify" viewBox="0 0 96 95.999999" height="128" preserveAspectRatio="xMidYMid meet" version="1.0"><path fill="#ffffff" d="M 67.285156 96 C 66.992188 96 66.691406 95.933594 66.414062 95.800781 L 52.71875 89.15625 C 52.027344 88.824219 51.589844 88.121094 51.589844 87.351562 C 51.589844 86.585938 52.03125 85.882812 52.726562 85.550781 C 58.761719 82.65625 61.675781 80.183594 63.472656 76.429688 C 65.449219 72.390625 66.054688 67.371094 66.054688 54.925781 L 66.054688 25.226562 C 66.054688 24.125 66.949219 23.226562 68.054688 23.226562 L 82.804688 23.226562 C 83.90625 23.226562 84.804688 24.128906 84.804688 25.230469 L 84.804688 60.105469 C 84.804688 72.523438 83.878906 78.503906 81.132812 83.785156 C 78.496094 89.058594 74.988281 92.320312 68.203125 95.78125 C 67.910156 95.929688 67.597656 96 67.285156 96 Z M 58.035156 87.289062 L 67.257812 91.761719 C 72.679688 88.878906 75.425781 86.246094 77.566406 81.96875 C 79.988281 77.304688 80.804688 71.796875 80.804688 60.105469 L 80.804688 27.230469 L 70.054688 27.226562 L 70.054688 54.929688 C 70.054688 68.253906 69.386719 73.464844 67.074219 78.175781 C 65.292969 81.898438 62.632812 84.632812 58.035156 87.289062 Z M 58.035156 87.289062 " fill-opacity="1" fill-rule="nonzero"/><path fill="#ffffff" d="M 40.1875 75.683594 C 20.960938 75.683594 10.800781 66.617188 10.800781 49.457031 C 10.800781 32.871094 21.546875 22.15625 38.175781 22.15625 C 39.847656 22.15625 41.234375 22.246094 42.589844 22.464844 L 42.589844 2 C 42.589844 0.894531 43.488281 0 44.589844 0 L 59.339844 0 C 60.441406 0 61.339844 0.894531 61.339844 2 L 61.339844 71.636719 C 61.339844 72.59375 60.660156 73.414062 59.71875 73.601562 C 52.058594 75.078125 46.402344 75.683594 40.1875 75.683594 Z M 38.175781 26.160156 C 23.976562 26.160156 14.800781 35.308594 14.800781 49.460938 C 14.800781 64.207031 23.34375 71.6875 40.1875 71.6875 C 45.6875 71.6875 50.757812 71.1875 57.335938 69.980469 L 57.335938 4 L 46.585938 4 L 46.585938 24.941406 C 46.585938 25.558594 46.300781 26.148438 45.808594 26.523438 C 45.316406 26.898438 44.675781 27.03125 44.070312 26.867188 C 42.148438 26.355469 40.492188 26.160156 38.175781 26.160156 Z M 59.335938 71.636719 L 59.375 71.636719 Z M 39.519531 63.566406 C 30.824219 63.566406 25.835938 58.320312 25.835938 49.164062 C 25.835938 39.84375 30.976562 34.277344 39.585938 34.269531 C 39.589844 34.269531 39.589844 34.269531 39.59375 34.269531 L 39.597656 34.269531 C 39.628906 34.269531 39.664062 34.269531 39.6875 34.269531 C 41.851562 34.277344 43.648438 34.589844 45.257812 35.164062 C 46.054688 35.449219 46.585938 36.199219 46.585938 37.046875 L 46.585938 61.175781 C 46.585938 62.175781 45.851562 63.015625 44.863281 63.15625 C 42.734375 63.457031 41.285156 63.566406 39.519531 63.566406 Z M 39.617188 38.269531 C 39.613281 38.269531 39.613281 38.269531 39.609375 38.269531 C 31.527344 38.269531 29.835938 44.191406 29.835938 49.164062 C 29.835938 56.066406 33.089844 59.566406 39.519531 59.566406 C 40.589844 59.566406 41.507812 59.523438 42.589844 59.410156 L 42.589844 38.550781 C 41.695312 38.351562 40.71875 38.296875 39.792969 38.261719 C 39.730469 38.265625 39.675781 38.269531 39.617188 38.269531 Z M 39.617188 38.269531 " fill-opacity="1" fill-rule="nonzero"/><path fill="#ffffff" d="M 82.800781 19.511719 L 68.050781 19.511719 C 66.945312 19.511719 66.050781 18.617188 66.050781 17.511719 L 66.050781 2.078125 C 66.050781 0.976562 66.945312 0.078125 68.050781 0.078125 L 82.800781 0.078125 C 83.902344 0.078125 84.800781 0.976562 84.800781 2.078125 L 84.800781 17.511719 C 84.800781 18.621094 83.902344 19.511719 82.800781 19.511719 Z M 70.050781 15.511719 L 80.800781 15.511719 L 80.800781 4.078125 L 70.050781 4.078125 Z M 70.050781 15.511719 " fill-opacity="1" fill-rule="nonzero"/></svg>